<svg xmlns="http://www.w3.org/2000/svg" viewBox="0 0 326.59 326.61"><defs><style>.cls-1{fill:#fff;}</style></defs><g id="Camada_2" data-name="Camada 2"><g id="Camada_1-2" data-name="Camada 1"><path class="cls-1" d="M37.61,0H288.78c.92.22,1.84.47,2.77.67a44,44,0,0,1,35,43.27q.07,119.34,0,238.69a43.79,43.79,0,0,1-44,43.92c-21.88.09-43.76,0-65.65,0-4.59,0-4.71-.11-4.71-4.58q0-53.85.09-107.71c0-4.63.12-4.72,4.92-4.73,11.36,0,22.73,0,34.1,0,5.34,0,8-2.4,8.63-7.42q2-17.07,4-34.16c.79-7-1.74-9.72-8.91-9.73q-19.44,0-38.88,0c-2.25,0-4-.29-3.94-3.2.1-10.73-.25-21.47.19-32.18.55-13.4,7.25-19.53,20.74-20.44,7.44-.51,14.86-.17,22.29-.45,4.33-.17,7-2.51,7.1-6.57q.21-15.93,0-31.87a6.28,6.28,0,0,0-6.72-6.6c-14.12.09-28.29-1.08-42.34.71-17.13,2.18-31.33,9.74-41,24.47-6.79,10.31-9.81,21.89-10.18,34.07S162,140.58,162,152.8c0,5.36,0,5.39-5.26,5.4-7.76,0-15.51,0-23.26,0-6.58,0-9,2.45-9,9.12q0,16.24,0,32.5c0,7.24,2.53,9.69,9.88,9.71,8,0,15.94.08,23.9,0,2.67,0,3.82.81,3.81,3.63Q162,268,162,322.78c0,2.9-1.11,3.84-4,3.83-38.67-.07-77.33,0-116-.12-10.37-.05-19.42-4.1-27.22-10.91C6.63,308.44,2,299.31,0,288.78V37.61C1.75,29,5.08,21.1,11.09,14.46,18.27,6.53,27.24,2,37.61,0Z"/></g></g></svg>