<svg xmlns="http://www.w3.org/2000/svg" viewBox="0 0 440.27 440.53"><defs><style>.cls-1{fill:#fff;}</style></defs><g id="Camada_2" data-name="Camada 2"><g id="Camada_1-2" data-name="Camada 1"><path class="cls-1" d="M322.27,440.53H117.74c-2.09-.44-4.18-.93-6.28-1.31-51-9.22-85.68-38.17-104.33-86.46C3.39,343.09,2,332.87,0,322.8V118.26c.28-1.4.64-2.78.83-4.19C4.16,90.42,13,69,28,50.45,53.08,19.31,85.68,1.31,125.74.64,188.59-.42,251.47.06,314.34.5c25.27.18,48.55,8.35,69.06,23.06,37.77,27.08,56.87,64.07,56.87,110.71q0,86.35,0,172.72a127,127,0,0,1-1.73,23.52c-9,47.9-36.05,81.32-80.63,100.71C346.52,436.18,334.38,438.3,322.27,440.53Zm72.94-219.82q0-43,0-85.94a113.94,113.94,0,0,0-1-16.7C388.31,77.88,352.52,45.75,312,45.49c-61.3-.4-122.6-.1-183.9-.12a73.49,73.49,0,0,0-10.68,1C77.21,52.28,45.23,88.09,45,128.68c-.4,61-.12,122-.14,183a76.52,76.52,0,0,0,.94,11.11c5.86,40.46,41.61,72.53,82.46,72.79,61.3.4,122.6.11,183.9.09A74.62,74.62,0,0,0,337.36,391c35.27-12.71,57.53-43.91,57.81-81.38C395.38,280,395.21,250.35,395.21,220.71Z"/><path class="cls-1" d="M334.29,221.08c-1.39,65-52.54,113.87-114.64,113.52C154.32,334.22,105.4,282,105.92,220c.55-66,53.52-114.19,114.87-113.51C286.41,107.15,333.93,159.68,334.29,221.08ZM220,151.46c-38.2.11-69.35,31.35-69,69.24a69,69,0,0,0,68.91,68.91c38,.3,69.1-30.74,69.24-69A69.13,69.13,0,0,0,220,151.46Z"/><path class="cls-1" d="M334.1,80.16a27.48,27.48,0,1,1-27.54,27.47A27.45,27.45,0,0,1,334.1,80.16Z"/></g></g></svg>