<svg xmlns="http://www.w3.org/2000/svg" viewBox="0 0 327.43 272.78"><defs><style>.cls-1{fill:#fff;}</style></defs><g id="Camada_2" data-name="Camada 2"><g id="Camada_1-2" data-name="Camada 1"><path class="cls-1" d="M0,243.86v-4.47c2-2.94,4.87-3.36,8.14-3.33,20.59.15,40.55-3,59.41-11.71a97.34,97.34,0,0,0,17.74-10c-.4-.33-.54-.52-.72-.58-.82-.23-1.65-.41-2.48-.62C57.9,206.93,41,192.32,31.76,169.06c-2.53-6.37-.78-8.44,6.11-7.73,2.68.28,5.35,1.07,8.51.19-.88-.55-1.38-.91-1.92-1.19A70.59,70.59,0,0,1,7,99c-.06-5,2.44-6.49,7-4.48,2.05.89,4,1.92,6.13,2.72a18,18,0,0,0,6.36,1.7c-.17-1.46-1.17-2-1.85-2.8C5.54,74,2.08,41,16.29,15.68c2.16-3.86,4.86-4.23,7.83-1,2,2.21,3.85,4.56,5.87,6.76A185.92,185.92,0,0,0,94.56,67.53a184.88,184.88,0,0,0,53,13.74c4.61.5,5.35-.32,5.29-5.08,0-2.66-.12-5.33,0-8a67.92,67.92,0,0,1,6-26.66A70.4,70.4,0,0,1,245,3.48a69,69,0,0,1,23.65,13c3.84,3.24,8,4.22,12.77,2.35,3.37-1.31,6.89-2.22,10.31-3.4A136.08,136.08,0,0,0,312,6c1.69-.92,3.49-1.15,5.09.2s1.49,3.15.83,5A69.72,69.72,0,0,1,304,35c-.75.83-2.32,1.64-1.7,2.79s2.08,0,3.17-.1a3.58,3.58,0,0,0,.62-.17c5.09-1.25,9.86-3.41,14.76-5.21,2.07-.77,4.19-1.38,5.81.78s.39,4-.84,5.82l-.91,1.32a131,131,0,0,1-23.94,26c-4.34,3.55-6.75,7.76-6.68,13.46a170.8,170.8,0,0,1-4.54,39.93c-10,44.05-31.8,81.16-66.52,110.22-32.65,27.32-70.89,40.61-113.12,42.66A190.78,190.78,0,0,1,26.36,258C17.16,254.13,7.79,250.43,0,243.86Z"/></g></g></svg>